<?xml version="1.0"?><svg width="640" height="480" xmlns="http://www.w3.org/2000/svg">
 <title>ocean waves</title>
 <metadata id="metadata2899">image/svg+xml</metadata>
 <g>
  <title>Layer 1</title>
  <path id="path2454" d="m-2.34418,372.256531c15.994299,-5.714264 31.9886,-22.857025 63.97719,-22.857025c31.988602,0 31.988602,22.857025 63.977173,22.857025c31.988571,0 31.988571,-22.857025 63.977142,-22.857025c31.988617,0 31.988617,22.857025 63.976761,22.857025c31.988617,0 31.988617,-22.857025 63.977234,-22.857025c31.988586,0 31.988586,22.857025 63.977081,22.857025c31.988586,0 31.988586,-22.857025 63.977203,-22.857025c31.988556,0 31.988556,22.857025 63.976746,22.857025c31.989075,0 31.989075,-22.857025 63.977234,-22.857025c31.988586,0 47.98291,17.142761 63.977173,22.857025" stroke-width="0" stroke="#000000" fill-rule="evenodd" fill="#0000ff"/>
  <rect fill="#0000ff" stroke="#000000" stroke-width="0" stroke-dasharray="null" stroke-linejoin="null" stroke-linecap="null" x="-1" y="372" width="641" height="108" id="svg_1"/>
  <ellipse fill="#000000" stroke="#000000" stroke-width="3" stroke-dasharray="null" stroke-linejoin="null" stroke-linecap="null" cx="318" cy="354" id="svg_3" ry="4"/>
 </g>
</svg>